# xmcd
#
# Track frame offsets:
#	150
#	20287
#	40500
#	60345
#	79777
#	99145
#
# Disc length: 1580 seconds
#
# Revision: 0
# Processed by: cddbd v1.5.2PL0 Copyright (c) Steve Scherf et al.
# Submitted via: EasyCDDAExtractor 10.0.2.1
#
DISCID=31062a06
DTITLE=Avant - I Wanna Know CD 5
DYEAR=1998
DGENRE=R&B
TTITLE0=I Wanna Know (Radio Edit)
TTITLE1=I Wanna Know (Instrumental)
TTITLE2=I Wanna Know (Acapella
TTITLE3=3 Ways (Radio Edit)
TTITLE4=3 Ways (Instrumental)
TTITLE5=3 Ways (Acapella)
EXTD=
EXTT0=
EXTT1=
EXTT2=
EXTT3=
EXTT4=
EXTT5=
PLAYORDER=
